<svg width="980" height="247" viewBox="0 0 980 247" fill="none" xmlns="http://www.w3.org/2000/svg">
<path d="M79.5959 127.611C79.5428 127.866 79.5027 128.151 79.471 128.468V215.5V221.184V238.5C79.471 242.918 75.8892 246.5 71.471 246.5H22.5C18.0817 246.5 14.5 242.918 14.5 238.5V208C14.5 203.582 18.0817 200 22.5 200H29.5C33.9183 200 37.5 203.582 37.5 208V220.5C37.5 224.918 41.0817 228.5 45.5 228.5H49.7111C54.1293 228.5 57.7111 224.918 57.7111 220.5V215.5V94.801C57.7111 93.9153 57.8522 93.032 58.1615 92.2021C59.7786 87.8625 61.3635 85.7957 65.2797 84.0025C69.9419 82.6021 72.4156 83.3042 76.6327 86.8407L130.73 143.736C131.244 144.277 131.825 144.761 132.495 145.089C134.237 145.942 135.51 145.981 137.278 145.049C137.856 144.744 138.356 144.312 138.806 143.839L193.001 86.8407C196.861 83.5527 199.05 82.8275 202.775 83.8217C203.197 83.9345 203.608 84.0963 203.993 84.3033C207.061 85.9517 208.455 87.9329 209.755 92.4618C209.945 93.1246 210.03 93.8124 210.03 94.502V159.829C210.03 160.365 209.979 160.902 209.863 161.425C209.203 164.411 208.434 166.243 206.246 169.15L183.455 194.119C180.869 196.952 176.636 197.551 173.366 195.547L171.739 194.55C167.461 191.928 166.625 186.061 169.999 182.349L185.432 165.366C187.982 162.784 188.814 161.135 189.217 157.797V128.471C189.217 126.633 188.28 124.207 186.8 125.296C186.667 125.394 186.527 125.505 186.378 125.63L142.317 173.441C142.048 173.734 141.76 174.01 141.437 174.241C139.582 175.572 137.474 176.229 136.271 176.519C135.624 176.675 134.957 176.686 134.3 176.573C132.627 176.287 129.268 175.529 127.721 173.88L84.8581 128.338C83.2419 126.621 80.0761 125.302 79.5959 127.611Z" fill="#0A64F5"/>
<circle cx="165.565" cy="206.993" r="23.6521" fill="#0A64F5"/>
<circle cx="165.564" cy="206.993" r="8.40691" fill="#0A64F5" stroke="white" stroke-width="4"/>
<path d="M37.8435 31.0218V164H14.1914V27.2375C18.9723 11.7596 24.0193 5.80785 37.8435 0.747147C45.943 -0.693143 50.4959 -0.207465 58.6573 3.5854L127.721 79.272C129.908 80.7655 131.148 81.3741 133.398 82.1103C135.342 81.4256 136.37 80.792 138.128 79.272L209.085 3.5854C217.315 0.638507 222.074 -0.0207049 230.844 0.747147C244.851 5.99903 250.1 11.7129 253.55 28.1836V162.5H230.844V28.1836C227.089 26.0282 224.823 25.9189 220.438 28.1836L139.074 114.277C137.307 115.588 136.08 116.027 133.398 116.169C130.935 116.003 129.71 115.55 127.721 114.277L46.3582 27.2375C41.7198 25.8364 39.795 26.5319 37.8435 31.0218Z" fill="url(#paint0_linear_347_356)"/>
<circle cx="26.4903" cy="187.125" r="26.4903" fill="url(#paint1_linear_347_356)"/>
<circle cx="242.197" cy="185.233" r="26.4903" fill="url(#paint2_linear_347_356)"/>
<circle cx="242.197" cy="185.233" r="7.46083" fill="url(#paint3_linear_347_356)" stroke="white" stroke-width="4"/>
<circle cx="26.4906" cy="187.125" r="7.46083" fill="url(#paint4_linear_347_356)" stroke="white" stroke-width="4"/>
<path d="M371.268 98.63C371.268 94.23 374.788 90.71 379.188 90.71H391.288C395.688 90.71 399.208 94.23 399.208 98.63V194.33C399.208 198.73 395.688 202.25 391.288 202.25H379.188C374.788 202.25 371.268 198.73 371.268 194.33V189.05C364.228 198.29 353.008 204.89 335.628 204.89C301.088 204.89 281.288 175.63 281.288 146.59C281.288 117.33 301.088 88.07 335.628 88.07C353.008 88.07 364.228 94.67 371.268 103.91V98.63ZM340.028 178.27C359.168 178.27 370.168 163.75 370.168 146.59C370.168 129.21 359.168 114.91 340.028 114.91C320.888 114.91 309.888 129.43 309.888 146.59C309.888 163.53 320.888 178.27 340.028 178.27ZM520.862 194.33C523.282 197.63 521.082 202.25 516.902 202.25H497.762C494.682 202.25 491.822 200.71 490.062 198.29L453.322 149.23V194.33C453.322 198.73 449.802 202.25 445.622 202.25H433.302C428.902 202.25 425.602 198.73 425.602 194.33V56.17C425.602 51.77 428.902 48.25 433.302 48.25H445.622C449.802 48.25 453.322 51.77 453.322 56.17V138.01L485.002 94.67C486.982 92.25 489.842 90.71 492.922 90.71H510.082C514.262 90.71 516.462 95.33 514.042 98.63L480.382 141.97L520.862 194.33ZM589.635 88.07C621.315 88.07 647.055 110.29 645.515 149.67C645.515 153.85 641.995 157.37 637.815 157.37H562.355C566.315 172.11 578.635 180.03 594.035 180.03C604.155 180.03 611.635 175.85 616.035 172.11C618.015 170.35 620.655 170.13 622.855 171.45L635.395 178.93C638.695 180.91 639.135 185.31 636.495 188.17C626.815 197.85 611.855 204.89 594.035 204.89C557.075 204.89 532.655 180.47 532.655 146.59C532.655 111.61 558.835 88.07 589.635 88.07ZM562.355 135.81H617.795C614.935 121.07 605.035 112.93 590.075 112.93C576.435 112.93 565.655 121.51 562.355 135.81ZM693.523 108.75C700.563 97.31 712.443 90.49 724.103 88.51C727.623 88.07 730.703 90.71 730.703 94.45V112.05C730.703 115.35 728.063 117.99 724.763 117.99C697.263 117.11 693.523 136.91 693.523 156.27V194.33C693.523 198.73 690.003 202.25 685.823 202.25H673.503C669.103 202.25 665.583 198.73 665.583 194.33V98.63C665.583 94.23 669.103 90.71 673.503 90.71H685.823C690.003 90.71 693.523 94.23 693.523 98.63V108.75ZM754.618 172.55C763.418 172.55 770.678 179.81 770.678 188.83C770.678 197.85 763.418 205.11 754.618 205.11C745.598 205.11 738.338 197.85 738.338 188.83C738.338 179.81 745.598 172.55 754.618 172.55ZM801.765 202.25C797.365 202.25 793.845 198.73 793.845 194.33V98.63C793.845 94.23 797.365 90.71 801.765 90.71H813.865C818.265 90.71 821.785 94.23 821.785 98.63V194.33C821.785 198.73 818.265 202.25 813.865 202.25H801.765ZM807.705 74.43C799.565 74.43 792.965 67.61 792.965 59.47C792.965 51.33 799.565 44.51 807.705 44.51C816.065 44.51 822.665 51.33 822.665 59.47C822.665 67.61 816.065 74.43 807.705 74.43ZM931.58 56.17C931.58 51.77 935.1 48.25 939.28 48.25H951.6C956 48.25 959.52 51.77 959.52 56.17V194.33C959.52 198.73 956 202.25 951.6 202.25H939.28C935.1 202.25 931.58 198.73 931.58 194.33V189.05C924.32 198.29 913.32 204.89 895.94 204.89C861.4 204.89 841.6 175.63 841.6 146.59C841.6 117.33 861.4 88.07 895.94 88.07C913.32 88.07 924.32 94.67 931.58 103.91V56.17ZM900.34 178.27C919.48 178.27 930.26 163.75 930.26 146.59C930.26 129.21 919.48 114.91 900.34 114.91C881.2 114.91 870.2 129.43 870.2 146.59C870.2 163.53 881.2 178.27 900.34 178.27Z" fill="url(#paint5_linear_347_356)"/>
<defs>
<linearGradient id="paint0_linear_347_356" x1="134.817" y1="0" x2="134.817" y2="212.67" gradientUnits="userSpaceOnUse">
<stop stop-color="#082F6D"/>
<stop offset="1" stop-color="#0A64F5"/>
</linearGradient>
<linearGradient id="paint1_linear_347_356" x1="26.4903" y1="160.635" x2="26.4903" y2="213.616" gradientUnits="userSpaceOnUse">
<stop stop-color="#082F6D"/>
<stop offset="1" stop-color="#0A64F5"/>
</linearGradient>
<linearGradient id="paint2_linear_347_356" x1="242.197" y1="158.743" x2="242.197" y2="211.724" gradientUnits="userSpaceOnUse">
<stop stop-color="#082F6D"/>
<stop offset="1" stop-color="#0A64F5"/>
</linearGradient>
<linearGradient id="paint3_linear_347_356" x1="242.197" y1="175.772" x2="242.197" y2="194.694" gradientUnits="userSpaceOnUse">
<stop stop-color="#082F6D"/>
<stop offset="1" stop-color="#0A64F5"/>
</linearGradient>
<linearGradient id="paint4_linear_347_356" x1="26.4906" y1="177.665" x2="26.4906" y2="196.586" gradientUnits="userSpaceOnUse">
<stop stop-color="#082F6D"/>
<stop offset="1" stop-color="#0A64F5"/>
</linearGradient>
<linearGradient id="paint5_linear_347_356" x1="274.688" y1="123.25" x2="979.688" y2="123.25" gradientUnits="userSpaceOnUse">
<stop stop-color="#082F6D"/>
<stop offset="1" stop-color="#0A64F5"/>
</linearGradient>
</defs>
</svg>
