<svg width="384" height="329" viewBox="0 0 384 329" fill="none" xmlns="http://www.w3.org/2000/svg">
<path d="M114.174 168.835C113.707 169.424 113.486 170.274 113.359 171.465V287.625V295.212V321C113.359 325.418 109.777 329 105.359 329H28.6831C24.2648 329 20.6831 325.418 20.6831 321V274.937C20.6831 270.519 24.2648 266.937 28.6831 266.937H45.4907C49.9089 266.937 53.4907 270.519 53.4907 274.937V296.976C53.4907 301.394 57.0724 304.976 61.4907 304.976H74.32C78.7383 304.976 82.32 301.394 82.32 296.976V295.212V287.625V126.168C82.32 125.226 82.4816 124.289 82.8244 123.411C85.1803 117.379 87.4184 114.558 93.1161 112.117C99.7662 110.248 103.295 111.185 109.31 115.905L186.793 192.155C187.316 192.67 187.904 193.12 188.562 193.444C191.396 194.837 193.318 194.92 196.182 193.407C196.751 193.107 197.26 192.703 197.719 192.252L275.299 115.905C280.908 111.435 284.043 110.514 289.54 111.952C289.943 112.058 290.336 112.203 290.71 112.385C295.34 114.645 297.365 117.317 299.28 123.678C299.492 124.382 299.591 125.117 299.591 125.852V213.537C299.591 214.109 299.531 214.68 299.402 215.238C298.448 219.35 297.37 221.813 294.193 225.762L259.657 261.165C257.109 263.777 253.116 264.334 249.951 262.519L242.154 258.047C237.625 255.45 236.758 249.28 240.395 245.534L264.503 220.711C268.14 217.266 269.327 215.064 269.901 210.609V170.666C269.901 168.738 269.095 165.995 267.317 166.74C266.889 166.919 266.414 167.236 265.853 167.677L202.842 231.653C202.565 231.934 202.27 232.198 201.945 232.423C198.988 234.473 195.522 235.37 193.902 235.7C193.291 235.825 192.669 235.834 192.052 235.744C189.896 235.43 184.552 234.438 182.184 232.076L119.919 170.174C118.319 168.584 115.574 167.066 114.174 168.835Z" fill="#030303"/>
<ellipse cx="236.164" cy="276.271" rx="33.7377" ry="31.5681" fill="#030303"/>
<path d="M236.164 264.381C243.385 264.381 249.008 269.827 249.008 276.271C249.008 282.714 243.385 288.161 236.164 288.161C228.942 288.161 223.319 282.714 223.319 276.271C223.319 269.827 228.943 264.381 236.164 264.381Z" fill="#030303" stroke="white" stroke-width="4"/>
<path d="M53.9801 41.4044V218.888H20.2424V36.3535C27.062 15.6954 34.261 7.75166 53.9801 0.997206C65.5334 -0.925128 72.0277 -0.2769 83.6693 4.78538L182.183 105.803C185.303 107.797 187.072 108.609 190.28 109.591C193.053 108.678 194.519 107.832 197.028 105.803L298.241 4.78538C309.981 0.852206 316.77 -0.0276345 329.28 0.997206C349.258 8.00683 356.746 15.6331 361.668 37.6162V216.886H329.28V37.6162C323.922 34.7394 320.69 34.5936 314.435 37.6162L198.377 152.524C195.857 154.273 194.106 154.859 190.28 155.049C186.767 154.827 185.02 154.223 182.183 152.524L66.1257 36.3535C59.5093 34.4835 56.7639 35.4118 53.9801 41.4044Z" fill="#030303"/>
<ellipse cx="37.7862" cy="249.754" rx="37.7862" ry="35.3563" fill="#030303"/>
<ellipse cx="345.474" cy="247.228" rx="37.7862" ry="35.3563" fill="#030303"/>
<path d="M345.474 236.601C351.95 236.601 356.969 241.482 356.969 247.228C356.969 252.974 351.95 257.856 345.474 257.856C338.998 257.856 333.979 252.974 333.979 247.228C333.979 241.482 338.998 236.601 345.474 236.601Z" fill="#030303" stroke="white" stroke-width="4"/>
<path d="M37.7864 239.126C44.2621 239.126 49.2813 244.007 49.2815 249.753C49.2815 255.5 44.2622 260.381 37.7864 260.381C31.3105 260.381 26.2913 255.5 26.2913 249.753C26.2914 244.007 31.3106 239.126 37.7864 239.126Z" fill="#030303" stroke="white" stroke-width="4"/>
</svg>
