<svg width="384" height="331" viewBox="0 0 384 331" fill="none" xmlns="http://www.w3.org/2000/svg">
<path d="M114.174 170.835C113.707 171.424 113.486 172.273 113.359 173.465V289.625V297.212V323C113.359 327.418 109.777 331 105.359 331H28.6831C24.2648 331 20.6831 327.418 20.6831 323V276.937C20.6831 272.519 24.2648 268.937 28.6831 268.937H45.4907C49.9089 268.937 53.4907 272.519 53.4907 276.937V298.976C53.4907 303.394 57.0724 306.976 61.4907 306.976H74.32C78.7383 306.976 82.32 303.394 82.32 298.976V297.212V289.625V128.168C82.32 127.226 82.4816 126.289 82.8244 125.411C85.1803 119.379 87.4184 116.558 93.1161 114.117C99.7662 112.248 103.295 113.185 109.31 117.905L186.793 194.155C187.316 194.67 187.904 195.12 188.562 195.444C191.396 196.837 193.318 196.919 196.182 195.407C196.751 195.107 197.26 194.703 197.719 194.251L275.299 117.905C280.908 113.435 284.043 112.514 289.54 113.952C289.943 114.057 290.336 114.203 290.71 114.385C295.34 116.645 297.365 119.317 299.28 125.678C299.492 126.382 299.591 127.117 299.591 127.852V215.537C299.591 216.109 299.531 216.68 299.402 217.237C298.448 221.35 297.37 223.813 294.193 227.762L259.657 263.165C257.109 265.777 253.116 266.334 249.951 264.518L242.154 260.047C237.625 257.45 236.758 251.279 240.395 247.534L264.503 222.711C268.14 219.266 269.327 217.064 269.901 212.609V172.666C269.901 170.738 269.095 167.994 267.317 168.74C266.889 168.919 266.414 169.236 265.853 169.677L202.842 233.653C202.565 233.934 202.27 234.198 201.945 234.423C198.988 236.473 195.522 237.37 193.902 237.7C193.291 237.825 192.669 237.834 192.052 237.744C189.896 237.43 184.552 236.438 182.184 234.076L119.919 172.174C118.319 170.584 115.574 169.066 114.174 170.835Z" fill="#0A64F5"/>
<ellipse cx="236.164" cy="278.271" rx="33.7377" ry="31.5681" fill="#0A64F5"/>
<path d="M236.164 266.381C243.385 266.381 249.008 271.827 249.008 278.271C249.008 284.714 243.385 290.161 236.164 290.161C228.942 290.161 223.319 284.714 223.319 278.271C223.319 271.827 228.943 266.381 236.164 266.381Z" fill="#0A64F5" stroke="white" stroke-width="4"/>
<path d="M53.9801 41.4044V225.5H20.2424V36.3535C27.062 15.6954 34.261 7.75166 53.9801 0.997206C65.5334 -0.925127 72.0276 -0.2769 83.6693 4.78538L182.183 105.803C185.303 107.796 187.072 108.609 190.28 109.591C193.053 108.678 194.519 107.832 197.028 105.803L298.241 4.78538C309.981 0.852206 316.77 -0.0276343 329.28 0.997206C349.258 8.00683 356.612 15.6331 361.533 37.6162V210V219.344H329.28V210V37.6162C323.922 34.7394 320.69 34.5936 314.435 37.6162L198.377 152.524C195.857 154.273 194.106 154.859 190.28 155.049C186.767 154.827 185.02 154.223 182.183 152.524L66.1257 36.3535C59.5093 34.4835 56.7639 35.4118 53.9801 41.4044Z" fill="url(#paint0_linear_358_860)"/>
<ellipse cx="37.7862" cy="251.754" rx="37.7862" ry="35.3563" fill="url(#paint1_linear_358_860)"/>
<ellipse cx="345.474" cy="249.228" rx="37.7862" ry="35.3563" fill="url(#paint2_linear_358_860)"/>
<path d="M345.474 238.601C351.95 238.601 356.969 243.482 356.969 249.228C356.969 254.974 351.95 259.856 345.474 259.856C338.998 259.856 333.979 254.974 333.979 249.228C333.979 243.482 338.998 238.601 345.474 238.601Z" fill="url(#paint3_linear_358_860)" stroke="white" stroke-width="4"/>
<path d="M37.7864 241.126C44.2621 241.126 49.2813 246.007 49.2815 251.753C49.2815 257.5 44.2622 262.381 37.7864 262.381C31.3105 262.381 26.2913 257.5 26.2913 251.753C26.2914 246.007 31.3106 241.126 37.7864 241.126Z" fill="url(#paint4_linear_358_860)" stroke="white" stroke-width="4"/>
<defs>
<linearGradient id="paint0_linear_358_860" x1="192.304" y1="0" x2="192.304" y2="283.847" gradientUnits="userSpaceOnUse">
<stop stop-color="#082F6D"/>
<stop offset="1" stop-color="#0A64F5"/>
</linearGradient>
<linearGradient id="paint1_linear_358_860" x1="37.7862" y1="216.397" x2="37.7862" y2="287.11" gradientUnits="userSpaceOnUse">
<stop stop-color="#082F6D"/>
<stop offset="1" stop-color="#0A64F5"/>
</linearGradient>
<linearGradient id="paint2_linear_358_860" x1="345.474" y1="213.872" x2="345.474" y2="284.584" gradientUnits="userSpaceOnUse">
<stop stop-color="#082F6D"/>
<stop offset="1" stop-color="#0A64F5"/>
</linearGradient>
<linearGradient id="paint3_linear_358_860" x1="345.474" y1="236.601" x2="345.474" y2="261.855" gradientUnits="userSpaceOnUse">
<stop stop-color="#082F6D"/>
<stop offset="1" stop-color="#0A64F5"/>
</linearGradient>
<linearGradient id="paint4_linear_358_860" x1="37.7863" y1="239.126" x2="37.7863" y2="264.381" gradientUnits="userSpaceOnUse">
<stop stop-color="#082F6D"/>
<stop offset="1" stop-color="#0A64F5"/>
</linearGradient>
</defs>
</svg>
